# xmcd
#
# Track frame offsets:
#	150
#	17473
#	34116
#	50799
#	67342
#	84260
#	107810
#	129422
#	142913
#	160068
#	176495
#	190070
#	212240
#	223382
#	237893
#	257431
#
# Disc length: 3745 seconds
#
# Revision: 0
# Processed by: cddbd v1.5.2PL0 Copyright (c) Steve Scherf et al.
# Submitted via: audiograbber 1.83.01
#
DISCID=e20e9f10
DTITLE=Skyhooks - The Latest And Greatest
DYEAR=1990
DGENRE=
TTITLE0=JukeBox In Siberia
TTITLE1=Living In The 70s
TTITLE2=You Just Like Me 'Cos I'm Good In Bed
TTITLE3=Balwyn Calling
TTITLE4=Horror Movie
TTITLE5=Smut
TTITLE6=All My Friends Are Getting Married
TTITLE7=Ego (Is Not A Dirty Word)
TTITLE8=Million Dollar Riff
TTITLE9=This Is My City
TTITLE10=BBBB Boogie
TTITLE11=Crazy Heart
TTITLE12=Blue Jeans
TTITLE13=Party To End All Parties
TTITLE14=Women In Uniform
TTITLE15=Tall Timber
EXTD=
EXTT0=
EXTT1=
EXTT2=
EXTT3=
EXTT4=
EXTT5=
EXTT6=
EXTT7=
EXTT8=
EXTT9=
EXTT10=
EXTT11=
EXTT12=
EXTT13=
EXTT14=
EXTT15=
PLAYORDER=
